{"title":"X-art - Kendall - Love At First Sight","uid":9814752,"size":311647714,"categoryP":"porn","categoryS":"movie_clips","magnet":"?xt=urn:btih:7f54cf94397388e7af905c403fe0328a732685e9&amp;dn=X-art+-+Kendall+-+Love+At+First+Sight&amp;tr=udp%3A%2F%2Ftracker.openbittorrent.com%3A80&amp;tr=udp%3A%2F%2Fopen.demonii.com%3A1337&amp;tr=udp%3A%2F%2Ftracker.coppersurfer.tk%3A6969&amp;tr=udp%3A%2F%2Fexodus.desync.com%3A6969","seeders":0,"leechers":1,"uploader":null,"files":-1,"time":1395612445,"description":" &lt;a href=&quot;http://bayimg.com/NAMadAafJ&quot; rel=&quot;nofollow&quot; target=&quot;_NEW&quot;&gt;http://bayimg.com/NAMadAafJ&lt;/a&gt;\n\nYou know the feeling when your desires are so strong, then finally you're both able to give in to the mutual craving and enjoy all of the lustfulness of the moment?? We need to find a way to bottle that feeling (okay, I'd love to ride unicorns over rainbows too ;-)). Until then, enjoy Kendall and Tyler and their love (for having sex with each other) at first sight...xx\n\nX-art_Kendall_Love_At_First_Sight.mp4\nFormat                                   : MPEG-4\nFormat profile                           : Base Media\nCodec ID                                 : isom\nFile size                                : 297 MiB\nDuration                                 : 17mn 8s\nOverall bit rate mode                    : Variable\nOverall bit rate                         : 2 423 Kbps\nWriting application                      : Lavf54.22.100\n\nVideo\nID                                       : 1\nFormat                                   : MPEG-4 Visual\nFormat profile                           : Simple@L1\nFormat settings, BVOP                    : No\nFormat settings, QPel                    : No\nFormat settings, GMC                     : No warppoints\nFormat settings, Matrix                  : Default (H.263)\nCodec ID                                 : 20\nDuration                                 : 17mn 8s\nBit rate mode                            : Variable\nBit rate                                 : 2 312 Kbps\nMaximum bit rate                         : 3 500 Kbps\nWidth                                    : 960 pixels\nHeight                                   : 540 pixels\nDisplay aspect ratio                     : 16:9\nFrame rate mode                          : Constant\nFrame rate                               : 23.976 fps\nColor space                              : YUV\nChroma subsampling                       : 4:2:0\nBit depth                                : 8 bits\nScan type                                : Progressive\nCompression mode                         : Lossy\nBits/(Pixel*Frame)                       : 0.186\nStream size                              : 284 MiB (95%)\nWriting library                          : Lavc54.46.100\nLanguage                                 : English\n\nAudio\nID                                       : 2\nFormat                                   : AAC\nFormat/Info                              : Advanced Audio Codec\nFormat profile                           : LC\nCodec ID                                 : 40\nDuration                                 : 17mn 8s\nBit rate mode                            : Variable\nBit rate                                 : 107 Kbps\nMaximum bit rate                         : 128 Kbps\nChannel count                            : 2 channels\nChannel positions                        : Front: L R\nSampling rate                            : 48.0 KHz\nCompression mode                         : Lossy\nStream size                              : 13.1 MiB (4%)\nLanguage                                 : English\n\n","torrent":{"xt":"urn:btih:7f54cf94397388e7af905c403fe0328a732685e9","amp;dn":"X-art+-+Kendall+-+Love+At+First+Sight","amp;tr":["udp%3A%2F%2Ftracker.openbittorrent.com%3A80","udp%3A%2F%2Fopen.demonii.com%3A1337","udp%3A%2F%2Ftracker.coppersurfer.tk%3A6969","udp%3A%2F%2Fexodus.desync.com%3A6969"],"infoHash":"7f54cf94397388e7af905c403fe0328a732685e9","infoHashBuffer":{"type":"Buffer","data":[127,84,207,148,57,115,136,231,175,144,92,64,63,224,50,138,115,38,133,233]},"announce":[],"urlList":[]}}